<?xml version="1.0" standalone="no"?>
<!DOCTYPE svg PUBLIC "-//W3C//DTD SVG 20010904//EN"
 "http://www.w3.org/TR/2001/REC-SVG-20010904/DTD/svg10.dtd">
<svg version="1.0" xmlns="http://www.w3.org/2000/svg"
 width="1024.000000pt" height="1024.000000pt" viewBox="0 0 1024.000000 1024.000000"
 preserveAspectRatio="xMidYMid meet">

<g transform="translate(0.000000,1024.000000) scale(0.100000,-0.100000)"
fill="#000000" stroke="none">
<path d="M5742 10230 c45 -8 118 -50 183 -106 l30 -26 -32 16 c-18 9 -37 16
-43 16 -8 0 -145 63 -212 98 -13 6 -9 -36 5 -45 8 -5 2 -10 -18 -14 -47 -10
-336 -10 -372 0 -18 5 -35 6 -38 1 -2 -4 11 -37 31 -74 19 -37 32 -71 29 -76
-15 -24 -219 -4 -278 27 -28 14 -29 14 -22 -9 12 -38 53 -103 95 -151 l39 -44
-22 -20 c-64 -57 -228 -141 -292 -150 -25 -3 -45 -9 -45 -14 0 -14 57 -39 105
-46 25 -3 45 -9 45 -14 0 -8 -89 -115 -162 -194 -27 -29 -48 -55 -48 -58 0 -4
32 -7 70 -7 45 0 70 -4 70 -11 0 -13 -72 -86 -110 -111 -21 -15 -23 -19 -10
-27 8 -6 36 -14 63 -17 52 -7 53 -9 32 -61 -27 -63 -20 -72 36 -49 14 6 16 1
12 -37 -5 -41 36 -193 95 -356 15 -42 15 -45 -8 -90 -13 -25 -31 -54 -39 -64
-20 -24 -16 -193 6 -262 26 -79 79 -152 134 -180 22 -12 29 -28 47 -104 26
-113 60 -180 125 -248 27 -29 48 -55 46 -57 -2 -2 -62 -39 -134 -81 -141 -83
-243 -152 -290 -196 -16 -15 -79 -54 -140 -85 -116 -60 -225 -127 -288 -176
-21 -17 -83 -54 -137 -84 -129 -69 -233 -149 -345 -265 -112 -116 -182 -208
-276 -364 -86 -143 -133 -242 -200 -424 -27 -75 -78 -208 -112 -296 l-62 -160
-93 -92 -93 -92 3 -68 3 -67 -55 -31 c-55 -31 -55 -31 -60 -86 -4 -49 -11 -63
-58 -120 l-53 -64 6 -72 c7 -85 1 -99 -54 -133 -31 -19 -43 -33 -47 -58 -9
-48 2 -115 33 -204 l27 -78 -18 -47 c-163 -431 -285 -961 -411 -1788 -9 -60
-27 -162 -40 -225 -62 -297 -79 -408 -70 -453 4 -18 29 -104 57 -192 60 -189
85 -224 176 -244 30 -6 88 -29 130 -51 46 -24 89 -40 110 -40 49 0 276 78 320
110 41 29 56 64 68 157 3 29 11 50 15 47 5 -3 23 -29 39 -57 21 -37 30 -65 30
-98 0 -65 12 -169 19 -169 3 0 42 109 86 241 44 132 83 245 86 251 9 15 129
-49 129 -69 0 -9 -12 -71 -27 -137 -23 -107 -30 -122 -59 -148 -38 -33 -50
-66 -59 -161 -5 -49 -13 -75 -29 -95 -13 -15 -21 -33 -18 -41 2 -8 0 -11 -6
-7 -5 3 -13 -5 -16 -19 -5 -18 -15 -26 -44 -30 -121 -21 -227 -75 -260 -134
-11 -20 -50 -128 -87 -241 -79 -237 -79 -235 18 -284 62 -32 68 -45 47 -116
-15 -50 -50 -259 -50 -297 0 -26 4 -33 20 -33 18 0 20 7 21 63 1 65 4 63 14
-15 l6 -48 3062 0 c1684 0 3067 4 3072 8 19 14 37 60 31 80 -4 11 -20 25 -37
32 -16 7 -43 29 -59 50 l-29 37 54 53 54 53 16 -39 c9 -21 31 -91 49 -154 19
-63 39 -116 45 -118 6 -2 11 -1 11 3 0 17 -42 169 -70 250 l-30 89 35 34 c19
19 35 42 35 51 0 34 -82 289 -113 351 -38 76 -82 110 -175 137 -68 20 -67 18
-77 115 -7 72 -25 103 -25 43 0 -33 -4 -37 -46 -55 -55 -24 -49 -24 -68 -4
-10 9 -16 33 -16 58 0 39 4 46 40 71 23 16 54 28 70 28 17 0 30 4 30 8 0 4 19
-3 43 -16 49 -29 146 -33 209 -11 33 12 42 11 79 -5 79 -36 168 -16 265 57 21
17 44 24 73 24 85 0 145 49 227 186 102 173 130 316 121 638 -5 185 -4 212 11
234 21 31 60 142 71 198 6 32 2 58 -15 110 -13 38 -23 76 -24 85 0 8 -14 34
-32 58 l-31 43 63 226 c190 682 219 1011 134 1481 l-26 144 39 56 c71 101 113
181 113 214 -1 48 -46 200 -64 213 -9 6 -16 14 -16 19 0 4 -9 18 -20 32 -16
21 -18 35 -13 82 4 46 2 64 -12 85 -14 21 -17 39 -12 85 8 70 2 79 -98 161
-87 71 -100 93 -115 185 -12 75 -27 110 -60 140 -36 32 -89 109 -190 275 -230
378 -404 635 -526 774 -129 148 -304 308 -383 351 -41 22 -77 49 -82 60 -4 11
-15 87 -24 169 -18 177 -30 208 -102 256 -29 20 -66 56 -82 82 -34 54 -108
112 -163 130 -21 6 -38 15 -38 19 0 5 -13 15 -30 24 -37 19 -148 19 -410 0
-509 -38 -557 -39 -584 -21 -20 12 -150 34 -218 36 -10 0 -25 63 -33 136 l-7
61 35 21 c50 32 135 126 157 175 28 63 41 163 30 230 -12 76 -38 132 -88 190
-40 45 -42 51 -35 90 14 75 9 229 -8 262 l-15 30 53 -3 c29 -2 53 -1 53 3 0 3
-14 18 -30 32 -40 33 -55 64 -86 171 -14 48 -34 102 -45 120 -24 42 -24 52 1
52 11 0 20 5 20 10 0 6 -10 10 -22 10 -13 1 -34 7 -48 15 -48 27 -50 15 -6
-40 45 -55 71 -119 95 -235 13 -63 16 -68 56 -99 l30 -23 -30 8 c-42 10 -50
18 -64 66 -12 38 -70 148 -108 203 -12 18 -13 15 -8 -25 l6 -45 -18 25 c-10
13 -25 32 -33 40 -65 70 -150 178 -150 192 0 5 27 -6 61 -22 33 -17 66 -29 72
-27 7 2 -5 12 -26 22 -68 32 -133 105 -93 105 21 0 162 -73 240 -125 68 -45
90 -53 100 -37 3 5 -18 18 -47 30 -29 12 -83 49 -122 82 -38 33 -96 79 -128
102 -54 40 -57 44 -50 73 10 39 6 100 -8 145 -13 40 -47 100 -57 100 -4 0 -6
-50 -4 -111 l4 -111 -43 48 c-39 42 -82 73 -280 198 -61 38 -101 49 -59 16 14
-11 72 -48 130 -83 119 -70 224 -168 235 -218 11 -48 -5 -52 -66 -20 -74 40
-146 68 -253 97 l-91 24 90 -4 c58 -3 110 -12 145 -25 29 -11 55 -19 57 -18 1
2 -39 28 -90 59 -104 64 -159 115 -182 171 -15 36 -35 50 -35 25 0 -34 25 -96
48 -120 14 -15 23 -30 20 -33 -3 -3 -32 6 -64 21 -78 35 -206 84 -221 84 -17
0 -125 41 -121 46 4 3 236 -53 293 -70 11 -4 0 3 -25 15 -77 36 -207 62 -325
65 -82 2 -98 0 -63 -6z m951 -237 c1 -36 -4 -58 -16 -71 -9 -10 -17 -33 -17
-51 0 -35 -20 -80 -44 -100 -17 -14 -22 -2 -7 15 25 27 51 148 52 241 l0 98
15 -40 c8 -22 16 -63 17 -92z m30 -125 c54 -37 118 -91 114 -95 -8 -7 -148 79
-158 98 -13 26 4 25 44 -3z m-1594 -94 c-89 -68 -182 -113 -247 -119 -34 -4
-40 -3 -22 4 46 15 148 70 226 121 108 70 139 66 43 -6z m1550 -113 c24 -34
37 -86 24 -94 -5 -3 -9 10 -9 29 0 24 -9 43 -29 64 -16 16 -24 30 -18 30 7 0
21 -13 32 -29z m-1725 -93 c-30 -49 -134 -159 -179 -190 -19 -14 -10 0 26 38
30 32 77 89 105 126 55 76 90 94 48 26z m1176 -95 c12 -31 19 -65 17 -75 -10
-37 10 -16 36 38 l28 57 22 -21 c12 -11 68 -50 125 -87 111 -73 124 -85 92
-85 -32 0 -16 -15 58 -59 37 -21 78 -51 92 -66 l25 -27 -24 7 c-22 7 -21 3 14
-41 61 -76 60 -75 39 -67 -16 6 -16 4 4 -23 67 -88 64 -83 42 -77 -18 5 -19 3
-11 -20 6 -15 19 -44 30 -65 l19 -38 -113 -28 -114 -27 -55 53 c-30 30 -74 63
-98 74 l-43 19 100 5 100 5 -55 33 c-92 54 -149 67 -290 66 -130 -2 -256 -26
-307 -60 -28 -18 -63 -72 -63 -97 0 -16 6 -17 47 -11 l47 7 -41 -47 c-30 -34
-45 -63 -54 -102 l-12 -54 -56 0 c-31 0 -69 -7 -84 -15 -28 -15 -29 -14 -80
42 -30 32 -72 66 -100 78 l-48 23 67 7 66 7 -37 38 c-63 65 -147 71 -300 23
-94 -29 -175 -90 -175 -130 0 -26 0 -26 35 -13 23 9 20 3 -19 -35 -26 -25 -49
-45 -51 -45 -9 0 -5 246 5 308 14 85 53 178 110 265 51 79 87 117 77 82 -3
-11 -8 -35 -12 -53 l-7 -32 52 50 c47 46 131 110 144 110 3 0 6 -5 6 -11 0 -5
-4 -8 -9 -4 -12 7 -16 -1 -24 -40 l-6 -30 15 30 14 30 -6 -45 c-3 -25 -13 -60
-20 -79 -18 -43 -13 -48 23 -24 51 35 165 94 157 81 -10 -16 -3 -11 105 76 97
80 98 77 13 -98 -3 -4 13 3 34 18 21 14 42 26 47 26 5 0 28 14 53 30 48 34 57
30 22 -8 l-23 -25 50 25 c28 14 70 36 95 49 65 33 101 62 140 113 18 26 37 46
41 46 4 0 17 -26 29 -57z m-226 -87 c-3 -8 -13 -17 -22 -21 -13 -5 -13 -2 3
15 21 24 26 25 19 6z m-994 -44 c0 -13 -110 -132 -121 -132 -6 0 18 32 52 70
65 72 69 76 69 62z m2117 -115 c22 -41 34 -207 16 -207 -9 0 -13 -17 -13 -51
0 -61 -14 -57 -34 10 -7 26 -26 71 -41 101 l-27 53 36 -22 35 -22 7 25 c3 14
3 38 -1 53 l-6 27 21 -25 21 -24 -16 40 c-9 22 -25 53 -36 68 l-21 29 21 -11
c11 -7 28 -26 38 -44z m-15 -327 c120 -34 188 -255 128 -415 -38 -99 -173
-217 -287 -250 -17 -4 -21 -2 -19 12 2 10 1 12 -1 6 -3 -7 -9 -13 -14 -13 -6
0 -7 -6 -1 -16 10 -17 5 -54 -7 -54 -3 0 -7 -22 -8 -48 -1 -26 -12 -72 -26
-102 -30 -68 -84 -143 -97 -135 -5 3 -7 0 -5 -7 7 -18 -43 -61 -62 -54 -10 4
-13 1 -9 -12 4 -12 -9 -28 -48 -55 -78 -56 -102 -67 -117 -53 -9 8 -11 7 -6
-6 8 -22 -35 -53 -58 -44 -9 3 -14 2 -11 -3 3 -5 -1 -14 -8 -20 -11 -10 -17
-8 -26 6 -9 15 -11 15 -6 1 7 -25 -20 -44 -39 -28 -13 11 -14 10 -9 -3 4 -12
-8 -23 -46 -42 -28 -14 -55 -23 -59 -20 -5 2 -12 -2 -15 -11 -4 -9 -13 -14
-21 -10 -8 3 -15 1 -15 -3 0 -9 -72 -27 -97 -24 -7 0 -13 -3 -13 -8 0 -5 -11
-9 -25 -9 -19 0 -25 6 -26 23 l-2 22 -4 -22 c-2 -13 -10 -23 -16 -24 -7 0 -22
-2 -34 -5 -17 -3 -23 1 -24 14 0 14 -2 14 -7 2 -9 -21 -62 -21 -63 -1 0 12 -3
10 -9 -4 -7 -17 -9 -17 -9 -2 -1 19 -21 24 -21 5 0 -8 -7 -5 -15 6 -11 15 -15
16 -16 5 0 -8 -4 -6 -9 6 l-9 20 -1 -20 c-1 -11 -4 -14 -7 -7 -2 6 -9 10 -14
6 -5 -3 -9 -1 -9 4 0 6 -9 8 -20 5 -15 -4 -20 0 -20 13 0 16 -2 17 -10 4 -8
-12 -10 -10 -11 10 0 23 -1 23 -9 5 -8 -19 -8 -19 -18 5 -8 18 -11 20 -11 8
-1 -19 -21 -26 -21 -8 0 6 -3 9 -7 8 -14 -4 -53 13 -53 22 0 5 -7 7 -15 4 -8
-4 -17 1 -21 10 -3 9 -10 13 -15 10 -5 -3 -9 0 -9 6 0 6 -4 9 -9 6 -5 -3 -12
1 -15 10 -3 8 -10 13 -15 9 -14 -8 -136 81 -176 129 -69 85 -115 231 -115 368
0 58 1 60 18 45 51 -46 211 -48 302 -2 64 32 134 95 160 145 21 42 40 135 40
201 0 39 4 49 25 63 13 9 43 16 67 15 33 0 38 -2 23 -9 -18 -8 -17 -9 7 -9 22
-1 29 -8 39 -38 22 -69 57 -129 95 -163 88 -77 213 -105 337 -76 188 44 275
137 285 307 l4 76 102 33 c55 18 106 35 113 37 7 3 16 -17 23 -51 6 -31 15
-58 20 -61 4 -2 19 32 34 78 30 97 66 154 109 172 39 17 43 17 89 5z m-702
-37 c103 -35 162 -122 164 -242 1 -172 -131 -284 -334 -284 -136 1 -225 54
-275 167 -78 172 -4 336 160 359 22 3 49 8 60 12 l20 8 -20 -17 c-16 -13 -11
-13 30 3 55 22 115 20 195 -6z m-845 -147 c17 -9 21 -14 10 -10 -11 4 -49 10
-84 12 -107 7 -176 -33 -231 -135 l-23 -42 36 -56 c21 -30 39 -55 41 -55 2 0
1 19 -1 43 -4 33 0 47 16 64 11 12 16 23 10 25 -13 4 23 51 60 77 l28 20 -5
-67 c-5 -77 13 -125 66 -176 29 -27 32 -27 69 -16 93 30 121 56 124 120 1 17
4 13 9 -15 25 -123 -56 -256 -187 -305 -90 -33 -206 -23 -258 23 -20 17 -28
39 -39 102 -7 45 -28 116 -45 159 -17 42 -31 88 -31 100 0 20 33 58 82 95 9 7
48 24 85 37 57 21 82 24 153 21 58 -2 95 -9 115 -21z m-464 -187 c-6 -16 -10
-18 -10 -7 -1 22 12 55 16 42 2 -6 -1 -22 -6 -35z m539 -74 c-16 -17 -30 -23
-43 -19 -13 4 -17 2 -13 -5 4 -6 -7 -14 -26 -20 -29 -8 -36 -6 -60 20 -38 40
-36 58 2 20 l30 -30 27 25 c14 13 31 24 37 24 6 0 5 -4 -2 -9 -11 -7 -11 -9 1
-14 9 -3 18 1 21 9 3 9 10 12 16 9 6 -3 13 1 16 10 4 9 9 13 12 10 3 -3 -5
-16 -18 -30z m-570 -95 c10 -25 10 -33 -1 -47 -11 -13 -11 -15 -1 -9 15 9 75
-51 66 -66 -3 -5 0 -7 8 -6 8 2 12 -4 10 -16 -3 -13 1 -17 12 -13 11 4 13 1 9
-10 -4 -10 -2 -14 5 -9 6 4 11 -1 11 -11 0 -10 3 -33 7 -52 6 -31 5 -32 -14
-22 -42 22 -88 77 -105 124 -5 12 -3 16 5 11 6 -4 8 -3 4 4 -3 6 -2 13 3 17
12 7 3 35 -11 35 -5 0 -6 -9 -3 -20 3 -11 2 -20 -3 -20 -12 0 -32 69 -32 109
0 39 14 40 30 1z m1964 -147 c2 -16 8 -46 11 -68 4 -22 22 -86 41 -143 l35
-103 -30 -37 c-45 -57 -236 -239 -331 -316 -80 -64 -313 -272 -335 -299 -21
-24 -24 -34 -10 -34 8 0 12 4 9 9 -3 4 -1 8 3 8 14 0 63 -152 63 -193 0 -27
-5 -39 -17 -44 -10 -3 -101 -38 -203 -78 -253 -100 -330 -118 -500 -119 -120
0 -141 3 -188 23 -84 37 -142 118 -142 196 0 57 15 65 128 65 106 0 196 -21
258 -59 24 -15 42 -18 74 -14 35 5 42 4 34 -8 -5 -9 0 -8 16 3 70 49 156 91
221 106 43 10 74 23 77 32 3 8 15 26 27 40 12 14 46 57 75 95 30 39 56 72 59
75 4 3 19 22 34 42 15 20 47 59 72 85 24 26 45 50 45 53 0 3 25 32 56 65 73
79 118 135 107 135 -5 0 -19 -13 -31 -30 -13 -16 -28 -30 -35 -30 -8 0 -9 3
-1 8 6 4 44 48 84 97 121 149 190 265 190 322 0 13 4 22 9 19 5 -4 7 3 4 14
-3 11 0 27 7 35 6 8 9 18 6 23 -8 14 35 48 66 51 3 1 9 -11 12 -26z m255 -202
c30 -21 130 -192 166 -284 15 -37 26 -69 24 -71 -2 -1 -23 -17 -45 -34 -55
-42 -63 -41 -19 2 19 19 35 38 35 43 0 5 -27 52 -61 104 -33 52 -74 120 -90
152 l-30 58 -37 -44 c-20 -25 -84 -87 -142 -138 -99 -87 -100 -84 -5 14 38 40
125 140 152 175 19 25 16 32 -14 33 -16 0 -37 4 -48 9 -13 5 0 6 35 3 30 -3
66 -13 79 -22z m946 20 c-6 -5 -185 -21 -400 -35 -214 -14 -409 -28 -432 -31
-25 -4 -44 -2 -48 5 -4 6 -5 13 -4 15 2 2 83 9 179 15 96 7 252 18 345 25 212
16 372 18 360 6z m65 -6 c9 -11 9 -15 1 -15 -7 0 -9 -4 -6 -10 3 -5 -3 -10
-14 -10 -23 0 -35 15 -27 35 7 19 30 19 46 0z m60 -45 c18 -12 2 -12 -25 0
-13 6 -15 9 -5 9 8 0 22 -4 30 -9z m60 -45 c13 -14 21 -25 18 -25 -2 0 -15 11
-28 25 -13 14 -21 25 -18 25 2 0 15 -11 28 -25z m193 -157 c44 -22 76 -81 77
-139 0 -28 -5 -38 -20 -42 -11 -3 -18 -1 -14 4 3 5 1 9 -5 9 -5 0 -13 21 -17
48 -11 77 -29 111 -69 127 -19 9 -35 18 -35 21 0 8 38 -5 83 -28z m-326 -114
c-3 -3 -12 -4 -19 -1 -8 3 -5 6 6 6 11 1 17 -2 13 -5z m83 -14 c13 -9 13 -10
0 -10 -8 0 -22 5 -30 10 -13 9 -13 10 0 10 8 0 22 -5 30 -10z m-1740 -14 c0
-2 -8 -10 -17 -17 -16 -13 -17 -12 -4 4 13 16 21 21 21 13z m1350 -56 c52 -11
113 -23 134 -27 l40 -6 -44 -13 c-24 -7 -47 -11 -52 -8 -4 3 -15 -2 -24 -11
-13 -12 -27 -15 -55 -10 -22 4 -47 2 -61 -6 -23 -12 -23 -12 -4 10 19 21 19
21 -1 21 -10 0 -28 -6 -38 -14 -17 -12 -24 -12 -45 -1 -31 16 -177 38 -242 36
-61 -2 -69 14 -16 33 24 8 50 17 58 20 31 12 258 -4 350 -24z m715 -10 c-3 -5
0 -10 7 -10 10 0 9 -3 -2 -10 -9 -6 -17 -5 -22 3 -12 19 -9 27 8 27 8 0 12 -4
9 -10z m-800 -60 c-3 -5 -12 -10 -18 -10 -7 0 -6 4 3 10 19 12 23 12 15 0z
m-456 -3 c-2 -1 -13 -9 -24 -17 -19 -14 -19 -14 -6 3 7 9 18 17 24 17 6 0 8
-1 6 -3z m209 -22 c81 -8 166 -17 190 -20 44 -6 54 -23 27 -45 -12 -10 -18
-10 -32 1 -15 11 -16 11 -5 -1 15 -18 16 -34 0 -24 -6 4 -8 3 -5 -3 4 -6 -1
-19 -9 -29 -9 -10 -13 -14 -10 -7 4 6 1 15 -5 19 -7 4 -9 3 -6 -3 3 -5 -5 -26
-18 -46 -14 -20 -25 -41 -25 -48 0 -6 -6 -9 -13 -6 -10 4 -14 -4 -14 -24 0
-34 22 -39 32 -8 9 27 16 20 8 -9 -5 -20 -11 -22 -80 -22 -47 0 -72 4 -68 10
4 7 -32 9 -107 6 -88 -3 -96 -2 -38 3 41 4 68 8 60 9 -13 2 -13 3 0 12 12 8
12 10 -5 11 -15 0 -13 3 9 11 20 7 39 7 66 -1 48 -14 87 -14 48 1 -16 5 -28
13 -28 17 0 3 -18 5 -40 3 -25 -3 -40 0 -40 7 0 7 -30 12 -82 13 l-83 2 83 3
c45 2 82 8 82 13 0 6 -35 9 -85 8 -73 -3 -85 -5 -85 -20 0 -10 -7 -18 -16 -18
-10 0 -14 -5 -10 -16 3 -8 2 -13 -3 -9 -5 3 -13 -9 -17 -27 -4 -18 -9 -28 -11
-23 -13 38 106 260 134 250 7 -2 12 -1 12 3 -4 27 -6 27 189 7z m336 6 c3 -4
-6 -13 -20 -20 -35 -16 -44 -13 -14 4 l25 15 -29 -6 c-21 -5 -27 -4 -22 5 8
13 52 15 60 2z m347 -15 c222 -58 487 -171 564 -241 l40 -37 -35 20 c-19 11
-62 26 -95 33 -33 7 -94 30 -135 50 -187 93 -264 120 -410 144 -122 21 -121
20 -80 38 45 21 42 21 151 -7z m-425 0 c10 -8 17 -17 14 -19 -3 -3 -16 3 -29
14 -27 22 -15 26 15 5z m-516 0 c0 -2 -8 -10 -17 -17 -16 -13 -17 -12 -4 4 13
16 21 21 21 13z m10 -30 c0 -2 -8 -10 -17 -17 -16 -13 -17 -12 -4 4 13 16 21
21 21 13z m554 -41 c-7 -16 -14 -18 -38 -9 -26 10 -18 24 14 24 22 0 28 -4 24
-15z m-169 -104 c-21 -43 -29 -39 -8 4 9 19 18 33 21 31 2 -2 -4 -18 -13 -35z
m-2896 5 c-2 -2 -15 -9 -29 -15 -24 -11 -24 -11 -6 3 16 13 49 24 35 12z m-78
-44 c-14 -9 -41 -29 -60 -44 -20 -16 -66 -49 -103 -74 -37 -26 -65 -51 -61
-57 3 -6 1 -7 -5 -3 -7 4 -27 -4 -44 -17 -18 -13 -42 -28 -53 -32 -18 -8 -16
-9 10 -13 17 -2 69 -12 117 -23 48 -10 101 -19 118 -19 16 0 30 -4 30 -10 0
-5 -4 -10 -9 -10 -6 0 -36 -23 -68 -51 -32 -28 -71 -57 -88 -65 -17 -8 -22 -9
-11 -2 54 36 121 96 121 108 0 18 -133 48 -215 49 l-54 1 39 41 c57 58 135
117 245 182 88 53 146 78 91 39z m2664 -12 c-27 -12 -43 -12 -25 0 8 5 22 9
30 9 10 0 8 -3 -5 -9z m1597 -178 c177 -169 372 -441 662 -927 89 -147 152
-239 190 -274 17 -16 27 -38 31 -70 3 -25 8 -57 10 -71 3 -14 -13 12 -35 58
l-39 83 -98 45 c-54 25 -114 53 -133 61 -29 13 -32 17 -15 20 67 15 95 25 95
37 0 7 -38 67 -84 132 -47 65 -100 144 -118 174 -18 30 -74 119 -125 197 -51
78 -92 146 -91 150 2 11 -24 63 -32 63 -4 0 -13 14 -20 30 -7 17 -17 30 -22
30 -5 0 -6 -4 -3 -10 10 -16 -1 -11 -16 7 -10 11 -10 14 -1 9 15 -9 15 -7 0
35 -21 63 -168 228 -273 307 l-30 23 33 -16 c19 -9 70 -51 114 -93z m-4652
-51 c0 -11 -37 -36 -69 -46 -32 -10 -19 10 23 36 34 21 46 24 46 10z m-101
-54 c-2 -1 -13 -9 -24 -17 -19 -14 -19 -14 -6 3 7 9 18 17 24 17 6 0 8 -1 6
-3z m371 -21 c0 -2 -8 -10 -17 -17 -16 -13 -17 -12 -4 4 13 16 21 21 21 13z
m-497 -83 c-123 -121 -304 -373 -373 -518 -21 -44 -52 -134 -69 -200 -18 -66
-41 -133 -52 -150 l-20 -30 3 120 3 120 78 140 c133 239 268 410 422 534 42
34 79 61 81 61 3 0 -30 -35 -73 -77z m-552 -881 c-11 -116 -41 -296 -47 -289
-2 2 -10 21 -18 43 l-14 39 -26 -60 c-26 -56 -41 -102 -64 -185 l-9 -35 -12
28 c-13 32 -7 50 118 380 39 104 71 196 72 205 0 12 2 13 6 4 3 -7 0 -66 -6
-130z m6467 -439 c72 -45 83 -68 61 -132 -19 -53 -38 -39 -41 31 l-3 63 -55
11 c-30 7 -51 12 -46 13 5 0 3 8 -4 16 -7 8 -9 15 -5 15 4 0 2 6 -4 13 -6 8
-8 16 -5 20 6 5 40 -12 102 -50z m-6721 -80 c-14 -21 -53 -67 -86 -103 -54
-58 -61 -62 -61 -40 0 18 23 48 82 107 45 45 84 80 86 78 3 -3 -7 -22 -21 -42z
m6798 -139 c20 -33 24 -49 16 -57 -8 -8 -11 -7 -11 4 0 8 -11 30 -25 49 -26
36 -31 50 -16 50 5 0 21 -21 36 -46z m-6885 -122 c0 -4 -30 -16 -67 -26 -38
-10 -75 -20 -83 -23 -10 -4 -12 -2 -5 5 13 12 115 51 138 51 9 1 17 -3 17 -7z
m6969 -120 c14 -35 51 -173 51 -189 0 -16 -34 -17 -61 -2 -19 10 -20 19 -17
101 2 64 -1 93 -9 95 -7 3 -10 10 -7 18 8 20 31 8 43 -23z m-7126 -109 c-7
-19 -92 -83 -109 -83 -26 0 -14 26 44 93 l57 67 7 -31 c3 -18 4 -38 1 -46z
m6800 -168 c21 -9 43 -13 49 -9 7 5 8 2 3 -6 -6 -10 -4 -12 8 -7 9 3 16 3 15
-1 -1 -4 18 -28 42 -53 53 -54 91 -99 83 -99 -3 0 0 -7 7 -15 7 -8 10 -24 7
-35 -3 -11 -1 -18 4 -15 10 7 23 -48 34 -152 4 -38 3 -39 -33 -16 l-27 17 19
-22 c11 -12 27 -22 37 -22 21 0 27 -36 38 -245 17 -314 -25 -594 -159 -1059
-37 -130 -50 -166 -50 -138 0 16 -61 71 -79 72 -8 0 0 -11 19 -25 19 -14 39
-33 44 -43 8 -15 6 -14 -12 2 -12 11 -22 16 -22 12 0 -4 -7 0 -16 8 -26 26
-39 18 -14 -9 12 -13 25 -23 29 -22 3 1 16 -5 29 -14 18 -13 21 -22 16 -47 -6
-29 -34 -47 -34 -22 0 6 5 10 11 10 8 0 8 5 -1 15 -10 12 -9 15 6 15 17 0 17
1 -1 14 -11 8 -23 12 -26 10 -4 -2 -14 5 -24 16 -22 24 -43 27 -24 4 12 -15
11 -16 -11 -10 -25 6 -25 6 -2 -6 12 -6 25 -22 28 -35 4 -12 10 -20 15 -17 5
3 2 16 -7 30 -20 30 -9 32 17 2 23 -29 24 -38 2 -38 -14 0 -14 -2 2 -20 10
-11 22 -17 26 -14 5 3 9 0 9 -5 0 -16 -16 -13 -30 4 -30 36 -154 106 -136 76
5 -8 -17 -11 -74 -11 -71 0 -92 -5 -160 -34 l-78 -34 -75 18 c-123 29 -287 44
-421 36 l-122 -6 -27 97 c-15 54 -30 113 -33 130 -4 19 -11 30 -17 26 -6 -3
-7 -1 -3 5 8 14 -4 93 -14 87 -4 -3 -10 4 -13 15 -3 11 -2 18 2 16 4 -3 5 12
2 32 -4 34 -5 35 -12 12 -5 -19 -7 -13 -8 25 -2 75 -12 126 -24 118 -7 -4 -8
0 -4 11 4 10 3 34 -3 55 -5 20 -17 91 -26 158 -9 67 -20 121 -23 119 -7 -5
-16 145 -16 259 1 118 25 190 129 382 41 77 47 83 121 118 61 30 66 31 88 34
8 1 8 4 -3 12 -12 9 -12 10 3 5 11 -4 34 5 60 23 54 37 188 103 254 127 29 9
49 22 46 27 -3 6 -1 7 5 3 6 -3 53 5 104 18 81 21 150 33 273 50 51 7 139 -2
178 -19z m194 -97 c-3 -7 -5 -2 -5 12 0 14 2 19 5 13 2 -7 2 -19 0 -25z
m-7107 1 c0 -6 12 -26 26 -45 30 -38 20 -38 -45 0 l-34 20 7 -70 c13 -114 12
-117 -7 -120 -30 -4 -47 35 -47 108 l0 67 43 29 c41 28 57 31 57 11z m-21
-343 c6 -7 39 -15 74 -18 53 -5 476 -130 527 -157 21 -11 49 -112 62 -228 16
-136 1 -284 -58 -573 -25 -124 -49 -247 -54 -275 -42 -236 -73 -387 -87 -425
-33 -87 -144 -269 -174 -284 -22 -11 -29 -11 -29 -2 0 20 -118 58 -141 46 -25
-14 -24 -42 0 -60 11 -7 18 -18 15 -22 -3 -5 -13 -3 -21 4 -13 10 -15 8 -12
-17 2 -17 7 -36 13 -43 5 -7 6 -15 3 -18 -3 -3 -13 8 -22 26 -26 49 -29 28 -6
-35 12 -31 21 -74 21 -96 0 -68 -68 -206 -96 -195 -8 3 -30 -12 -50 -33 -25
-26 -44 -37 -58 -35 -12 3 -16 2 -9 -2 7 -3 9 -12 6 -21 -4 -11 -2 -14 5 -9
11 7 17 -6 13 -28 -1 -5 6 -25 15 -44 13 -28 15 -53 11 -119 -5 -88 6 -105 18
-27 4 26 13 53 20 61 17 16 69 18 59 2 -4 -8 1 -9 17 -4 24 7 24 7 4 -9 -19
-15 -19 -16 -1 -9 13 4 17 3 12 -5 -3 -6 2 -16 11 -22 16 -10 16 -11 1 -6 -11
3 -2 -18 30 -67 25 -40 47 -83 48 -97 1 -34 -28 -55 -57 -40 -11 6 -27 9 -34
6 -9 -3 -12 0 -8 10 3 7 10 14 16 14 6 0 7 3 4 6 -4 4 -13 1 -21 -5 -24 -20
-185 -6 -218 19 -15 11 -31 20 -36 20 -15 0 -37 39 -56 98 -10 28 -23 52 -31
52 -12 0 -29 35 -26 53 1 5 -3 6 -8 3 -5 -4 -13 -1 -16 4 -5 7 -11 5 -19 -5
-10 -15 -15 -8 -31 46 -10 35 -23 69 -28 74 -9 10 -8 -3 9 -83 7 -35 -34 -90
-54 -70 -7 7 -12 17 -12 22 0 6 -14 19 -31 28 -29 17 -30 17 -28 0 3 -35 -2
-47 -11 -24 -5 12 -7 29 -3 37 3 9 -2 21 -11 28 -38 28 -27 137 45 462 16 72
45 231 64 355 104 660 212 1158 321 1482 30 90 63 187 72 215 18 56 23 61 41
39z m5668 -498 c-3 -8 -6 -5 -6 6 -1 11 2 17 5 13 3 -3 4 -12 1 -19z m40 -290
c-3 -8 -6 -5 -6 6 -1 11 2 17 5 13 3 -3 4 -12 1 -19z m1203 -778 c8 -5 11 -10
5 -10 -5 0 -17 5 -25 10 -8 5 -10 10 -5 10 6 0 17 -5 25 -10z m-938 -331 c34
-11 108 -40 165 -65 58 -24 109 -41 115 -38 6 4 8 2 4 -4 -3 -6 18 -25 51 -46
32 -19 74 -51 93 -71 19 -20 55 -51 80 -68 25 -17 48 -35 51 -40 4 -5 12 -6
19 -2 9 6 11 4 5 -5 -6 -10 -3 -12 13 -8 12 4 20 2 17 -2 -11 -17 73 -32 205
-37 77 -3 151 -1 172 5 33 9 37 8 42 -12 15 -55 -6 -378 -26 -403 -6 -7 -8
-18 -6 -25 3 -7 -1 -29 -8 -48 -7 -19 -13 -28 -13 -20 -1 13 -2 13 -11 0 -5
-9 -5 -19 2 -27 7 -9 7 -13 -1 -13 -7 0 -9 -5 -5 -11 4 -8 -1 -9 -16 -4 -17 5
-20 4 -15 -5 6 -10 1 -11 -18 -6 -24 6 -26 4 -18 -16 6 -17 3 -28 -12 -43 -20
-20 -20 -20 -8 2 6 13 9 34 5 48 -6 26 -16 26 -20 1 -2 -13 -33 -66 -40 -66
-1 0 -6 5 -10 12 -5 7 -3 8 6 3 10 -6 12 -4 7 9 -5 11 -3 15 5 10 8 -5 9 -2 5
10 -4 9 -3 15 2 12 5 -3 9 6 9 19 0 14 -4 25 -9 25 -5 0 -9 -7 -9 -16 0 -8 -5
-12 -10 -9 -6 4 -10 3 -9 -2 3 -17 -1 -32 -13 -45 -7 -7 -19 -25 -27 -40 -8
-16 -19 -24 -27 -21 -10 4 -12 0 -7 -13 4 -12 3 -15 -6 -10 -7 5 -20 1 -31 -9
-14 -13 -38 -17 -95 -18 -42 0 -78 3 -81 6 -6 5 -39 -25 -72 -68 -37 -46 -24
-18 16 38 53 73 72 104 72 118 0 7 -15 -8 -34 -32 -68 -88 -80 -94 -196 -96
-116 -3 -173 -21 -164 -51 5 -16 5 -16 -5 0 -9 13 -6 26 10 57 12 23 26 38 32
34 6 -3 7 -1 3 5 -7 11 15 52 41 80 7 7 13 18 13 24 0 16 -44 -37 -87 -104
-20 -31 -41 -54 -46 -51 -6 3 -7 1 -4 -4 9 -15 -43 -65 -60 -59 -9 4 -11 1 -7
-6 5 -8 -7 -9 -47 -4 -30 4 -65 8 -79 9 -14 1 -24 7 -23 14 2 7 -3 10 -11 7
-16 -6 -46 21 -47 44 -2 41 4 87 21 155 46 178 68 250 80 257 10 6 7 23 -14
76 -15 38 -33 80 -40 93 -11 20 -14 21 -19 7 -4 -10 -3 -15 3 -11 6 3 10 -1
10 -9 0 -8 -4 -18 -10 -21 -5 -3 -10 -1 -10 6 0 7 -2 10 -5 7 -3 -3 -3 -13 1
-22 6 -15 7 -15 19 0 10 14 12 11 11 -24 -2 -48 -4 -51 -42 -58 -16 -2 -35 -7
-41 -9 -8 -3 -13 4 -13 15 0 11 -4 20 -10 20 -5 0 -10 -6 -10 -12 0 -9 -4 -8
-10 2 -6 10 -10 11 -10 3 0 -19 -18 -15 -23 5 -2 9 -3 -8 -1 -38 3 -45 2 -50
-6 -26 -16 50 -41 274 -35 313 17 107 51 190 122 301 34 55 117 142 134 142 5
0 37 -9 71 -21z m-5572 -134 c-10 -39 -24 -90 -31 -115 l-12 -45 -18 40 c-30
67 -25 93 28 147 26 26 48 46 49 45 1 -1 -6 -34 -16 -72z m41 -21 c-27 -116
-59 -224 -60 -199 -1 21 41 204 60 263 20 62 20 25 0 -64z m-108 51 c-3 -9 -8
-14 -10 -11 -3 3 -2 9 2 15 9 16 15 13 8 -4z m6443 -122 c-7 -7 -26 7 -26 19
0 6 6 6 15 -2 9 -7 13 -15 11 -17z m-6446 -100 c0 -12 -4 -24 -9 -27 -5 -3 -8
12 -7 34 1 39 16 33 16 -7z m-719 -427 c-6 -7 -8 -30 -6 -52 2 -21 2 -30 -1
-19 -3 11 -10 30 -16 42 -8 17 -6 26 8 46 14 18 20 21 22 11 2 -8 -1 -21 -7
-28z m6219 29 c0 -8 -2 -15 -4 -15 -2 0 -6 7 -10 15 -3 8 -1 15 4 15 6 0 10
-7 10 -15z m0 -35 c0 -5 -5 -10 -11 -10 -5 0 -7 5 -4 10 3 6 8 10 11 10 2 0 4
-4 4 -10z m-6200 -26 c0 -8 -4 -12 -10 -9 -5 3 -10 10 -10 16 0 5 5 9 10 9 6
0 10 -7 10 -16z m6203 -21 c-5 -12 -3 -14 7 -8 10 6 12 4 7 -9 -4 -10 -7 -23
-8 -29 0 -7 -5 1 -9 17 -5 16 -7 33 -4 38 9 14 14 9 7 -9z m-6314 -38 c0 -5
-4 -3 -9 5 -5 8 -9 22 -9 30 0 16 17 -16 18 -35z m218 13 c-3 -8 -6 -5 -6 6
-1 11 2 17 5 13 3 -3 4 -12 1 -19z m-150 -30 c-3 -8 -6 -5 -6 6 -1 11 2 17 5
13 3 -3 4 -12 1 -19z m173 2 c0 -5 -4 -10 -10 -10 -5 0 -10 5 -10 10 0 6 5 10
10 10 6 0 10 -4 10 -10z m6066 -36 c-4 -9 -9 -15 -11 -12 -3 3 -3 13 1 22 4 9
9 15 11 12 3 -3 3 -13 -1 -22z m1089 -92 c-3 -3 -11 0 -18 7 -9 10 -8 11 6 5
10 -3 15 -9 12 -12z m-6299 -52 c-40 -36 -47 -55 -15 -45 21 7 21 7 3 -25 -18
-30 -40 -48 -49 -38 -6 6 23 99 37 116 12 14 50 32 57 26 2 -1 -13 -17 -33
-34z m-24 -142 c-11 -18 -25 -49 -31 -68 -7 -19 -26 -51 -43 -70 l-31 -35 25
45 c14 25 28 56 31 70 9 34 44 90 58 90 6 0 2 -14 -9 -32z m5489 -31 c-10 -9
-11 -8 -5 6 3 10 9 15 12 12 3 -3 0 -11 -7 -18z m227 -2 c-3 -3 -9 2 -12 12
-6 14 -5 15 5 6 7 -7 10 -15 7 -18z m42 11 c0 -2 -8 -10 -17 -17 -16 -13 -17
-12 -4 4 13 16 21 21 21 13z m-5823 -172 c-3 -3 -12 -4 -19 -1 -8 3 -5 6 6 6
11 1 17 -2 13 -5z m-134 -22 c-28 -10 -55 -20 -59 -24 -11 -12 -26 -10 -19 2
7 11 91 39 115 38 8 0 -8 -7 -37 -16z m-132 -77 c-17 -20 -40 -55 -51 -78 -16
-33 -17 -37 -3 -17 35 48 82 95 115 114 33 19 33 19 15 -1 -9 -11 -14 -22 -11
-26 3 -3 -7 -25 -23 -49 -32 -46 -86 -167 -132 -296 -16 -44 -35 -90 -42 -103
-7 -13 -12 -27 -11 -31 4 -16 -13 -7 -40 19 -15 15 -28 34 -28 43 0 27 118
369 139 403 22 35 57 61 71 52 5 -3 12 0 15 6 4 5 9 8 12 5 3 -3 -8 -21 -26
-41z m5746 -15 c-1 -22 -5 -40 -9 -40 -24 0 -98 26 -95 33 1 5 25 17 52 27 28
9 51 18 52 19 1 0 1 -17 0 -39z m158 -113 c51 -28 63 -40 87 -87 14 -30 29
-68 32 -85 5 -28 5 -29 -6 -7 -6 13 -66 57 -132 98 l-121 74 60 0 c42 0 56 3
45 10 -8 5 -44 10 -79 10 -57 0 -62 2 -50 16 19 23 89 10 164 -29z m-6080
-385 c-7 -7 -55 39 -55 52 0 5 13 -3 30 -19 16 -16 28 -31 25 -33z"/>
<path d="M6946 8809 c-56 -44 -82 -131 -92 -305 -5 -81 -3 -123 4 -128 5 -3
43 10 83 29 41 19 79 35 86 35 7 0 13 7 13 16 0 10 -6 14 -14 11 -10 -4 -13
-1 -9 8 3 8 9 12 14 9 31 -19 -10 81 -51 126 -44 48 -48 66 -24 116 35 74 122
17 145 -96 7 -34 7 -34 8 -5 0 17 -8 49 -18 71 -11 25 -16 47 -11 55 9 14 -1
38 -26 63 -22 22 -76 20 -108 -5z m111 -34 c-1 -5 3 -9 10 -8 7 2 10 -4 6 -13
-5 -13 -8 -13 -24 2 -10 9 -29 17 -42 18 -38 2 -23 13 17 12 19 -1 34 -5 33
-11z m-67 -265 c0 -5 -5 -10 -11 -10 -5 0 -7 5 -4 10 3 6 8 10 11 10 2 0 4 -4
4 -10z"/>
<path d="M5660 8315 c0 -5 5 -17 10 -25 5 -8 10 -10 10 -5 0 6 -5 17 -10 25
-5 8 -10 11 -10 5z"/>
<path d="M6146 8099 c4 -7 -4 -20 -17 -31 -13 -11 -17 -16 -9 -12 41 20 59 54
29 54 -6 0 -7 -5 -3 -11z"/>
<path d="M6070 8035 c-14 -8 -20 -14 -14 -15 5 0 19 7 30 15 24 18 16 19 -16
0z"/>
<path d="M5630 7987 c0 -8 10 -17 22 -20 30 -8 30 -5 2 16 -19 14 -24 15 -24
4z"/>
<path d="M6515 7750 c-3 -5 -1 -10 4 -10 6 0 11 5 11 10 0 6 -2 10 -4 10 -3 0
-8 -4 -11 -10z"/>
<path d="M6235 7590 c-3 -5 -1 -10 4 -10 6 0 11 5 11 10 0 6 -2 10 -4 10 -3 0
-8 -4 -11 -10z"/>
<path d="M5981 7524 c0 -11 3 -14 6 -6 3 7 2 16 -1 19 -3 4 -6 -2 -5 -13z"/>
<path d="M5922 7510 c0 -14 2 -19 5 -12 2 6 2 18 0 25 -3 6 -5 1 -5 -13z"/>
<path d="M6102 8845 c-79 -34 -131 -99 -132 -164 0 -22 3 -20 29 16 28 39 67
73 82 73 4 0 10 -13 14 -30 4 -16 15 -32 26 -35 27 -9 15 -23 -16 -17 -19 3
-25 0 -25 -14 0 -40 22 -95 48 -120 25 -23 32 -25 86 -20 86 9 128 32 144 80
8 26 9 49 3 72 -7 26 -6 34 4 34 24 0 55 -51 55 -89 0 -47 17 -24 26 37 5 34
2 49 -16 75 -64 93 -230 145 -328 102z m226 -250 c-11 -25 -43 -39 -120 -51
-40 -7 -61 4 -80 40 l-10 21 19 -21 c15 -15 31 -20 64 -18 24 1 54 2 67 3 12
1 32 12 44 26 27 31 31 31 16 0z"/>
<path d="M6026 8835 c-11 -8 -27 -15 -36 -15 -9 0 -25 -9 -35 -20 -17 -18 -17
-20 -2 -14 9 3 17 10 17 14 0 4 12 10 28 13 27 6 76 36 57 36 -5 0 -19 -6 -29
-14z"/>
<path d="M5460 8440 c-9 -6 -10 -10 -3 -10 6 0 15 5 18 10 8 12 4 12 -15 0z"/>
<path d="M6682 7813 c-6 -2 -10 -9 -6 -14 8 -14 21 -11 28 6 6 15 1 17 -22 8z"/>
<path d="M6640 7761 c-7 -13 -7 -22 0 -26 5 -3 10 -3 11 2 0 4 2 16 4 26 4 22
-2 22 -15 -2z"/>
<path d="M6320 7193 c0 -14 -45 -33 -83 -34 l-32 -1 29 -8 c39 -12 113 26 92
47 -3 4 -6 2 -6 -4z"/>
<path d="M6178 7133 c12 -2 32 -2 45 0 12 2 2 4 -23 4 -25 0 -35 -2 -22 -4z"/>
<path d="M7608 7573 c7 -3 16 -2 19 1 4 3 -2 6 -13 5 -11 0 -14 -3 -6 -6z"/>
<path d="M7748 7533 c6 -2 18 -2 25 0 6 3 1 5 -13 5 -14 0 -19 -2 -12 -5z"/>
<path d="M7868 7533 c6 -2 18 -2 25 0 6 3 1 5 -13 5 -14 0 -19 -2 -12 -5z"/>
<path d="M7390 7480 c-9 -6 -10 -10 -3 -10 6 0 15 5 18 10 8 12 4 12 -15 0z"/>
<path d="M7398 7453 c7 -3 16 -2 19 1 4 3 -2 6 -13 5 -11 0 -14 -3 -6 -6z"/>
<path d="M7314 7422 c-9 -15 -24 -32 -32 -38 -12 -9 -13 -13 -2 -19 9 -5 11
-4 6 3 -4 7 -2 12 3 12 6 0 11 -3 11 -7 0 -5 12 -9 28 -9 15 -1 21 1 15 3 -7
3 -13 9 -13 15 0 6 7 7 16 4 14 -5 15 -4 5 8 -6 7 -9 20 -5 29 10 28 -14 27
-32 -1z m17 -16 c-6 -14 -15 -26 -20 -26 -6 0 -2 13 7 29 20 36 26 34 13 -3z"/>
<path d="M7580 7276 c0 -2 7 -7 16 -10 8 -3 12 -2 9 4 -6 10 -25 14 -25 6z"/>
<path d="M7448 7263 c6 -2 18 -2 25 0 6 3 1 5 -13 5 -14 0 -19 -2 -12 -5z"/>
<path d="M7465 7250 c-27 -8 -26 -9 13 -7 23 2 42 -1 42 -5 0 -12 38 -10 45 2
3 6 -2 10 -12 10 -10 0 -27 2 -38 4 -11 2 -33 0 -50 -4z"/>
<path d="M7590 7234 c-24 -13 -24 -14 -4 -14 12 0 24 7 28 15 3 8 4 15 3 14
-1 -1 -13 -7 -27 -15z"/>
<path d="M10051 4427 c2 -1 13 -9 24 -17 19 -14 19 -14 6 3 -7 9 -18 17 -24
17 -6 0 -8 -1 -6 -3z"/>
<path d="M10077 4319 c7 -7 15 -10 18 -7 3 3 -2 9 -12 12 -14 6 -15 5 -6 -5z"/>
<path d="M10077 4289 c7 -7 15 -10 18 -7 3 3 -2 9 -12 12 -14 6 -15 5 -6 -5z"/>
<path d="M10060 4266 c0 -2 7 -7 16 -10 8 -3 12 -2 9 4 -6 10 -25 14 -25 6z"/>
<path d="M10058 4233 c7 -3 16 -2 19 1 4 3 -2 6 -13 5 -11 0 -14 -3 -6 -6z"/>
<path d="M10088 4203 c7 -3 16 -2 19 1 4 3 -2 6 -13 5 -11 0 -14 -3 -6 -6z"/>
<path d="M10038 4193 c7 -3 16 -2 19 1 4 3 -2 6 -13 5 -11 0 -14 -3 -6 -6z"/>
<path d="M10092 4114 c10 -10 20 -15 24 -12 3 4 -5 12 -18 18 -22 12 -22 12
-6 -6z"/>
<path d="M10105 4040 c3 -5 8 -10 11 -10 2 0 4 5 4 10 0 6 -5 10 -11 10 -5 0
-7 -4 -4 -10z"/>
<path d="M10080 4030 c0 -5 10 -15 23 -21 22 -12 22 -12 3 10 -21 23 -26 26
-26 11z"/>
<path d="M10011 3867 c17 -14 79 -48 79 -44 0 7 -65 47 -75 47 -5 0 -6 -1 -4
-3z"/>
<path d="M10037 3709 c7 -7 15 -10 18 -7 3 3 -2 9 -12 12 -14 6 -15 5 -6 -5z"/>
<path d="M10040 3646 c0 -2 7 -7 16 -10 8 -3 12 -2 9 4 -6 10 -25 14 -25 6z"/>
<path d="M10047 3609 c7 -7 15 -10 18 -7 3 3 -2 9 -12 12 -14 6 -15 5 -6 -5z"/>
<path d="M10007 3539 c7 -7 15 -10 18 -7 3 3 -2 9 -12 12 -14 6 -15 5 -6 -5z"/>
<path d="M10002 3374 c10 -10 20 -16 22 -13 3 3 -5 11 -17 18 -21 13 -21 12
-5 -5z"/>
<path d="M9960 3366 c0 -2 11 -11 25 -20 14 -9 25 -13 25 -8 0 5 -11 14 -25
20 -14 6 -25 10 -25 8z"/>
<path d="M9922 3304 c10 -10 20 -16 22 -13 3 3 -5 11 -17 18 -21 13 -21 12 -5
-5z"/>
<path d="M9895 3207 c22 -19 42 -33 44 -31 5 4 -36 40 -64 55 -11 7 -2 -4 20
-24z"/>
<path d="M9936 3205 c10 -8 24 -14 29 -14 6 0 1 6 -9 14 -11 8 -24 15 -30 15
-5 0 -1 -7 10 -15z"/>
<path d="M9926 3146 c4 -12 0 -16 -17 -17 -21 -1 -21 -2 -4 -6 11 -3 27 -12
36 -19 14 -13 17 -13 22 0 4 9 1 18 -5 22 -7 5 -8 2 -3 -6 5 -8 3 -11 -6 -8
-8 3 -13 12 -11 21 1 8 -2 18 -8 22 -6 3 -7 0 -4 -9z"/>
<path d="M9910 3083 c22 -9 44 -33 30 -33 -6 0 -8 -5 -4 -11 5 -8 10 -6 16 5
11 19 -14 46 -42 45 -13 -1 -13 -1 0 -6z"/>
<path d="M9880 3054 c0 -2 9 -8 20 -14 11 -6 20 -7 20 -2 0 6 -9 12 -20 15
-11 3 -20 3 -20 1z"/>
<path d="M9840 3034 c0 -7 71 -36 76 -31 2 2 -14 11 -36 20 -22 8 -40 13 -40
11z"/>
<path d="M9880 2996 c0 -2 7 -9 15 -16 9 -7 15 -8 15 -2 0 5 -7 12 -15 16 -8
3 -15 4 -15 2z"/>
<path d="M9800 2886 c0 -2 8 -10 18 -17 15 -13 16 -12 3 4 -13 16 -21 21 -21
13z"/>
<path d="M2366 1925 c-13 -35 -6 -92 14 -110 11 -10 20 -13 20 -7 0 6 -5 14
-10 17 -6 4 -7 11 -4 17 4 7 2 8 -4 4 -8 -5 -12 1 -12 14 0 12 4 18 10 15 6
-4 7 6 3 27 -7 41 -9 43 -17 23z"/>
<path d="M3024 1512 c-9 -5 -8 -10 2 -19 8 -8 15 -9 19 -3 3 6 1 10 -5 10 -6
0 -8 5 -5 10 7 12 4 12 -11 2z"/>
<path d="M8581 1864 c0 -11 3 -14 6 -6 3 7 2 16 -1 19 -3 4 -6 -2 -5 -13z"/>
<path d="M8607 1829 c4 -13 8 -18 11 -10 2 7 -1 18 -6 23 -8 8 -9 4 -5 -13z"/>
<path d="M9633 1435 c0 -8 4 -12 9 -9 5 3 6 10 3 15 -9 13 -12 11 -12 -6z"/>
<path d="M9305 1360 c-4 -6 -11 -7 -17 -4 -7 4 -8 2 -4 -5 6 -9 12 -9 24 1 10
7 19 14 21 15 2 2 -1 3 -7 3 -6 0 -14 -5 -17 -10z"/>
<path d="M3149 1003 c-13 -16 -12 -17 4 -4 9 7 17 15 17 17 0 8 -8 3 -21 -13z"/>
<path d="M3210 979 c0 -5 5 -7 10 -4 6 3 10 8 10 11 0 2 -4 4 -10 4 -5 0 -10
-5 -10 -11z"/>
</g>
</svg>
